<svg width="41" height="29" viewBox="0 0 41 29" fill="none" xmlns="http://www.w3.org/2000/svg">
<g clip-path="url(#clip0_790_1164)">
<g opacity="0.7">
<rect x="4" y="15.5" width="2" height="10" rx="1" fill="white"/>
<rect x="9" y="8.5" width="2" height="17" rx="1" fill="white"/>
<rect x="14" y="15.5" width="2" height="10" rx="1" fill="white"/>
<rect x="19" y="12.5" width="2" height="13" rx="1" fill="white"/>
</g>
<circle cx="26" cy="10.5" r="9" fill="#F53B49" stroke="#1A1A25" stroke-width="2"/>
<path d="M23.9434 7.22727V14.5H23.0628V8.15057H23.0202L21.2446 9.32955V8.43466L23.0628 7.22727H23.9434ZM28.3078 14.5994C27.8911 14.5994 27.5159 14.5166 27.1821 14.3509C26.8483 14.1851 26.5808 13.9579 26.3795 13.669C26.1783 13.3802 26.0682 13.0511 26.0493 12.6818H26.9015C26.9347 13.0109 27.0838 13.2831 27.349 13.4986C27.6165 13.7116 27.9361 13.8182 28.3078 13.8182C28.6061 13.8182 28.8712 13.7483 29.1032 13.6087C29.3376 13.469 29.5211 13.2772 29.6537 13.0334C29.7886 12.7872 29.8561 12.509 29.8561 12.1989C29.8561 11.8816 29.7863 11.5987 29.6466 11.3501C29.5093 11.0992 29.3199 10.9015 29.0784 10.7571C28.8369 10.6127 28.5611 10.5393 28.251 10.5369C28.0284 10.5346 27.8 10.5689 27.5656 10.6399C27.3312 10.7086 27.1383 10.7973 26.9868 10.9062L26.1629 10.8068L26.6032 7.22727H30.3817V8.00852H27.3419L27.0862 10.1534H27.1288C27.278 10.035 27.465 9.93679 27.6899 9.85866C27.9148 9.78054 28.1492 9.74148 28.393 9.74148C28.8381 9.74148 29.2346 9.84801 29.5827 10.0611C29.933 10.2718 30.2077 10.5606 30.4065 10.9276C30.6077 11.2945 30.7084 11.7135 30.7084 12.1847C30.7084 12.6487 30.6042 13.063 30.3959 13.4276C30.1899 13.7898 29.9058 14.0762 29.5436 14.2869C29.1814 14.4953 28.7694 14.5994 28.3078 14.5994Z" fill="white"/>
</g>
<defs>
<clipPath id="clip0_790_1164">
<rect width="41" height="28" fill="white" transform="translate(0 0.5)"/>
</clipPath>
</defs>
</svg>
